<svg id="svg" version="1.1" xmlns="http://www.w3.org/2000/svg" xmlns:xlink="http://www.w3.org/1999/xlink" width="400" height="188.64426419466977" viewBox="0, 0, 400,188.64426419466977"><g id="svgg"><path id="path0" d="M88.297 18.805 C 81.651 20.360,81.712 20.328,78.188 24.157 C 71.878 31.014,69.238 38.857,70.416 47.240 C 70.998 51.378,71.391 52.161,75.013 56.401 C 77.159 58.913,89.740 65.817,92.173 65.817 C 94.224 65.817,93.815 62.511,91.663 61.690 C 83.514 58.584,74.623 52.037,74.623 49.145 C 74.623 48.657,74.415 48.130,74.160 47.972 C 73.455 47.537,73.645 41.727,74.433 39.629 C 74.816 38.610,75.431 36.675,75.801 35.330 C 76.982 31.025,82.115 24.461,84.820 23.796 C 85.458 23.639,86.189 23.348,86.445 23.149 C 89.864 20.491,105.056 22.344,109.755 25.992 C 110.341 26.447,111.390 26.944,112.086 27.097 C 118.057 28.408,121.804 38.893,119.464 47.740 C 117.850 53.842,113.683 59.832,110.271 60.955 C 108.415 61.566,108.015 64.732,109.736 65.196 C 110.181 65.316,110.875 66.075,111.278 66.882 C 111.812 67.952,112.472 68.458,113.711 68.751 C 114.646 68.973,115.411 69.433,115.411 69.775 C 115.411 70.657,116.327 71.112,116.915 70.524 C 117.268 70.171,117.240 69.821,116.818 69.313 C 116.492 68.920,116.407 68.574,116.629 68.544 C 117.481 68.432,117.984 68.303,118.656 68.027 C 119.038 67.870,120.125 67.504,121.070 67.213 C 123.309 66.525,129.780 60.788,129.780 59.492 C 129.780 58.266,140.194 47.580,142.610 46.326 C 144.898 45.139,146.782 43.407,150.869 38.738 C 155.214 33.774,156.061 32.908,156.577 32.908 C 156.861 32.908,157.316 32.494,157.587 31.987 C 158.512 30.258,164.956 27.995,165.669 29.149 C 165.844 29.432,166.413 29.664,166.934 29.664 C 167.945 29.664,167.963 30.974,167.010 35.367 C 166.626 37.140,163.353 41.649,162.419 41.692 C 162.143 41.705,161.637 42.239,161.295 42.880 C 160.952 43.521,160.094 44.410,159.389 44.856 C 157.067 46.327,152.533 50.216,147.518 55.041 C 144.801 57.654,142.381 59.791,142.138 59.791 C 141.896 59.791,140.111 61.430,138.172 63.434 C 136.233 65.437,133.395 67.916,131.866 68.943 L 129.085 70.810 127.376 77.468 C 125.945 83.048,124.780 90.392,124.703 94.322 C 124.389 110.486,124.752 114.071,127.449 121.437 C 128.242 123.604,129.311 126.823,129.824 128.590 C 130.337 130.358,130.897 132.026,131.067 132.298 C 131.238 132.570,131.390 133.001,131.405 133.256 C 131.565 135.959,132.361 138.999,133.127 139.833 C 134.304 141.113,134.665 155.856,133.643 160.868 C 132.111 168.381,128.442 171.658,127.116 166.699 C 126.823 165.606,125.857 163.919,124.969 162.949 C 123.279 161.104,123.039 160.261,122.579 154.577 C 122.435 152.793,122.022 149.664,121.662 147.625 C 121.301 145.585,120.888 143.147,120.742 142.207 C 120.370 139.795,117.704 138.046,116.316 139.302 C 115.185 140.325,115.172 141.910,116.266 145.119 C 116.736 146.497,117.145 148.373,117.176 149.288 C 117.206 150.203,117.448 151.520,117.712 152.215 C 118.867 155.252,117.542 166.853,115.749 169.409 C 113.588 172.490,105.886 175.034,101.854 173.998 C 100.643 173.687,99.652 173.532,99.652 173.654 C 99.652 173.776,99.031 173.433,98.271 172.892 C 97.512 172.351,96.418 171.818,95.840 171.706 C 95.262 171.595,94.717 171.288,94.629 171.023 C 94.540 170.759,93.642 170.121,92.632 169.606 C 87.872 167.178,81.427 160.973,79.355 156.826 C 77.591 153.294,74.970 145.639,75.327 145.062 C 76.072 143.857,82.254 147.050,83.430 149.247 C 83.722 149.792,84.967 151.349,86.197 152.708 C 87.447 154.088,88.584 155.863,88.775 156.731 C 90.145 162.978,94.674 165.571,98.349 162.213 L 99.884 160.811 99.944 150.741 C 99.976 145.203,100.151 140.117,100.331 139.438 C 100.576 138.520,100.423 137.967,99.738 137.281 C 98.975 136.519,95.844 128.359,95.703 126.767 C 95.680 126.512,95.421 125.738,95.126 125.047 C 94.832 124.356,94.450 122.687,94.279 121.339 C 94.107 119.991,93.812 118.679,93.622 118.424 C 93.432 118.169,93.163 116.813,93.025 115.411 C 92.707 112.197,91.679 107.636,90.463 104.050 C 89.946 102.524,89.310 100.649,89.051 99.884 C 87.941 96.615,87.434 93.145,87.987 92.592 C 89.656 90.924,88.148 88.640,84.357 87.092 C 80.929 85.692,77.253 83.227,76.376 81.739 C 75.666 80.536,74.909 80.038,72.846 79.414 C 71.402 78.977,68.969 77.759,67.439 76.707 C 65.910 75.656,63.511 74.318,62.109 73.734 C 60.707 73.150,58.621 72.106,57.474 71.414 C 56.327 70.721,53.746 69.558,51.738 68.830 C 49.731 68.101,47.332 66.989,46.408 66.359 C 45.484 65.728,43.789 64.773,42.642 64.235 C 41.495 63.697,39.561 62.568,38.345 61.727 C 37.129 60.886,34.835 59.564,33.247 58.790 C 31.659 58.016,29.316 56.777,28.042 56.037 C 26.767 55.297,25.286 54.500,24.751 54.267 C 23.295 53.631,19.226 49.515,18.318 47.760 C 16.913 45.043,18.866 42.765,22.858 42.466 C 24.035 42.378,25.539 41.951,26.202 41.517 C 27.543 40.638,29.690 40.861,30.616 41.976 C 30.919 42.342,31.419 42.642,31.726 42.642 C 32.032 42.642,32.773 43.163,33.372 43.801 C 33.971 44.438,34.686 44.959,34.961 44.959 C 35.236 44.959,36.073 45.608,36.822 46.402 C 37.571 47.195,39.030 48.392,40.065 49.062 C 41.100 49.733,42.051 50.398,42.178 50.542 C 42.306 50.685,43.244 51.416,44.264 52.166 C 45.284 52.915,46.222 53.644,46.350 53.786 C 46.477 53.927,47.272 54.524,48.115 55.114 C 48.958 55.703,50.308 56.788,51.115 57.525 C 51.922 58.262,52.825 58.864,53.121 58.864 C 53.417 58.864,54.257 59.176,54.988 59.557 C 55.718 59.938,56.638 60.250,57.034 60.252 C 57.429 60.254,57.950 60.438,58.192 60.661 C 58.827 61.248,62.787 62.434,66.280 63.085 C 67.937 63.393,69.772 64.015,70.358 64.467 C 70.943 64.919,72.018 65.420,72.746 65.580 C 74.373 65.937,76.515 67.017,79.258 68.862 C 82.854 71.281,88.800 72.941,92.301 72.505 C 93.922 72.303,96.284 72.123,97.549 72.106 C 99.826 72.074,99.853 72.057,100.270 70.293 C 100.964 67.364,100.085 66.868,95.851 67.798 C 90.731 68.923,88.565 68.531,81.872 65.273 C 79.868 64.298,77.967 63.499,77.647 63.499 C 77.328 63.499,76.568 63.121,75.961 62.658 C 74.591 61.617,70.145 60.044,64.658 58.660 C 59.015 57.237,49.937 52.692,48.000 50.320 C 47.730 49.989,46.790 49.325,45.911 48.845 C 43.596 47.580,41.796 46.106,37.203 41.715 C 34.896 39.509,34.402 39.404,26.363 39.401 L 18.658 39.397 16.780 41.435 C 11.349 47.327,16.506 55.022,30.012 61.178 C 31.860 62.020,33.372 62.872,33.372 63.071 C 33.372 63.269,34.467 63.967,35.805 64.622 C 37.144 65.277,39.386 66.537,40.788 67.421 C 44.162 69.549,50.266 72.537,52.723 73.262 C 53.806 73.582,54.693 73.983,54.693 74.154 C 54.693 74.325,55.788 74.970,57.126 75.587 C 58.465 76.204,60.394 77.256,61.414 77.925 C 62.433 78.594,63.736 79.286,64.309 79.463 C 64.921 79.651,65.473 80.298,65.646 81.027 C 66.106 82.966,67.221 83.990,68.516 83.665 C 69.190 83.496,69.934 83.649,70.391 84.050 C 71.409 84.946,76.470 87.601,77.157 87.601 C 78.061 87.601,79.869 89.773,79.272 90.142 C 78.706 90.492,82.054 94.438,83.605 95.249 C 84.156 95.537,84.731 96.677,85.123 98.262 C 85.471 99.664,85.949 101.228,86.188 101.738 C 86.426 102.248,86.755 103.395,86.919 104.287 C 87.083 105.180,87.801 107.787,88.515 110.081 C 89.228 112.375,89.961 115.695,90.143 117.459 C 90.324 119.222,90.637 121.099,90.839 121.630 C 91.040 122.161,91.465 123.743,91.783 125.145 C 92.101 126.547,92.978 129.258,93.733 131.170 C 94.833 133.955,95.157 135.615,95.363 139.513 C 96.130 154.041,95.634 161.202,94.080 158.053 C 92.383 154.616,91.410 152.683,90.673 151.281 C 89.574 149.192,84.108 143.819,82.271 143.021 C 80.935 142.441,79.762 141.430,77.520 138.926 C 72.944 133.814,67.502 140.888,71.292 147.021 C 71.834 147.897,72.566 149.853,72.919 151.366 C 74.475 158.035,81.191 167.106,87.969 171.693 C 89.063 172.433,90.106 173.265,90.287 173.542 C 90.467 173.818,92.439 174.937,94.670 176.028 C 96.900 177.119,98.725 178.188,98.725 178.404 C 98.725 180.315,112.860 177.903,115.087 175.611 C 115.801 174.877,116.677 174.276,117.034 174.276 C 118.154 174.276,120.023 171.284,120.511 168.708 C 121.116 165.517,121.147 165.505,122.342 167.973 C 122.906 169.139,123.792 170.201,124.347 170.377 C 124.894 170.551,125.751 171.213,126.251 171.848 C 127.160 173.004,130.970 173.181,133.559 172.187 C 134.583 171.795,138.110 162.167,137.754 160.739 C 137.684 160.456,137.659 149.331,137.725 147.393 C 137.907 142.003,136.510 134.586,135.249 134.256 C 134.667 134.104,134.415 133.594,134.415 132.567 C 134.415 131.759,133.910 129.810,133.293 128.237 C 131.705 124.189,130.707 121.072,130.704 120.146 C 130.702 119.709,130.404 118.782,130.041 118.086 C 127.446 113.112,126.996 89.321,129.352 81.711 C 129.842 80.128,130.243 78.534,130.243 78.168 C 130.243 77.803,130.556 77.384,130.939 77.237 C 131.321 77.090,131.634 76.700,131.634 76.369 C 131.634 74.347,134.007 71.383,138.818 67.396 C 140.348 66.128,143.059 63.633,144.844 61.851 C 147.900 58.798,152.458 54.758,154.300 53.467 C 154.755 53.148,156.599 51.417,158.397 49.619 C 160.194 47.821,161.849 46.350,162.074 46.350 C 163.589 46.350,170.184 38.055,170.744 35.445 C 172.143 28.928,170.997 25.251,167.452 24.885 C 161.023 24.221,157.682 26.117,151.007 34.213 C 148.971 36.682,146.752 39.198,146.075 39.803 C 145.398 40.409,143.882 41.765,142.707 42.816 C 141.532 43.867,138.867 46.056,136.785 47.679 C 134.703 49.302,132.792 51.017,132.539 51.489 C 132.286 51.962,131.353 53.053,130.466 53.915 C 129.579 54.777,128.853 55.674,128.853 55.908 C 128.853 56.807,121.163 63.754,119.121 64.700 C 116.401 65.960,113.013 64.823,114.135 63.026 C 114.450 62.522,114.847 62.109,115.018 62.109 C 116.334 62.109,121.071 55.695,121.865 52.839 C 124.786 42.324,124.335 34.107,120.590 29.581 C 119.059 27.731,112.784 23.268,110.299 22.262 C 108.904 21.697,106.929 20.856,105.910 20.393 C 100.930 18.132,93.885 17.497,88.297 18.805 M105.908 33.939 C 104.889 34.460,103.433 34.911,102.672 34.940 C 100.741 35.016,100.629 36.306,102.397 38.114 C 104.105 39.861,107.951 40.059,109.561 38.482 C 110.628 37.439,110.261 34.421,109.013 33.961 C 108.581 33.802,108.122 33.519,107.994 33.332 C 107.866 33.145,106.927 33.419,105.908 33.939 M79.862 33.927 C 77.955 34.848,77.646 38.245,79.062 42.745 C 79.354 43.673,81.112 42.893,81.112 41.835 C 81.112 41.514,81.428 41.251,81.814 41.251 C 82.200 41.251,82.878 41.060,83.320 40.827 C 83.763 40.593,84.919 40.057,85.889 39.634 C 88.981 38.288,89.193 35.226,86.194 35.226 C 85.773 35.226,85.050 34.809,84.589 34.299 C 83.670 33.284,81.540 33.116,79.862 33.927 M302.433 45.588 C 299.859 46.418,296.647 48.319,296.643 49.015 C 296.641 49.334,296.198 49.594,295.659 49.594 C 294.212 49.594,291.635 52.617,289.865 56.389 C 289.008 58.214,287.758 60.361,287.086 61.159 C 285.913 62.553,285.864 62.837,285.849 68.344 L 285.833 74.077 287.608 76.548 C 288.584 77.906,289.884 79.413,290.496 79.894 C 291.109 80.376,291.798 81.265,292.028 81.869 C 292.257 82.472,292.793 82.966,293.219 82.966 C 294.081 82.966,298.028 85.328,298.029 85.845 C 298.030 86.026,297.144 86.420,296.060 86.720 C 293.148 87.528,290.446 88.858,289.323 90.036 C 288.777 90.609,287.697 91.703,286.922 92.468 C 285.640 93.733,283.662 97.205,283.662 98.189 C 283.662 98.410,283.192 99.101,282.619 99.726 C 282.045 100.350,280.974 101.736,280.238 102.806 C 279.503 103.876,278.739 104.751,278.541 104.751 C 278.344 104.751,277.770 105.637,277.267 106.721 C 276.764 107.804,275.578 110.359,274.633 112.399 C 273.688 114.438,272.164 117.149,271.246 118.424 C 269.277 121.160,266.512 126.323,266.512 127.264 C 266.512 127.628,266.319 127.926,266.083 127.926 C 265.431 127.926,263.251 132.990,262.993 135.102 C 262.709 137.432,263.468 138.878,265.626 140.119 L 267.289 141.075 270.647 138.843 C 272.493 137.615,274.113 136.325,274.247 135.976 C 274.381 135.627,274.691 135.342,274.935 135.342 C 275.452 135.342,277.252 133.273,279.001 130.667 C 279.676 129.663,280.688 128.519,281.250 128.125 C 281.812 127.732,282.271 127.209,282.271 126.963 C 282.271 126.449,284.519 122.825,285.268 122.132 C 285.543 121.877,286.571 120.678,287.552 119.467 C 291.154 115.020,293.125 117.428,294.282 127.694 C 294.830 132.555,295.100 132.387,286.918 132.256 C 280.071 132.146,279.898 132.167,279.518 133.163 C 278.910 134.758,280.229 135.950,282.265 135.646 C 283.161 135.512,286.188 135.576,288.992 135.789 C 294.749 136.226,295.213 136.096,298.085 133.256 C 298.778 132.570,298.952 131.967,298.752 130.939 C 298.603 130.174,298.360 128.297,298.212 126.767 C 297.919 123.732,296.543 118.950,295.185 116.241 C 294.710 115.295,294.322 113.781,294.322 112.876 C 294.322 111.970,293.871 110.270,293.319 109.096 C 289.926 101.878,283.717 107.089,286.239 115.038 C 286.389 115.510,285.819 116.713,284.812 118.051 C 283.889 119.276,282.483 121.165,281.687 122.248 C 280.890 123.331,280.070 124.218,279.864 124.218 C 279.659 124.218,279.490 124.500,279.490 124.845 C 279.490 125.191,279.021 126.017,278.447 126.682 C 277.874 127.347,276.779 128.667,276.014 129.616 C 271.496 135.222,268.322 137.340,267.141 135.538 C 266.373 134.366,266.594 132.097,267.475 132.097 C 267.740 132.097,267.838 131.903,267.691 131.666 C 267.545 131.429,268.030 130.210,268.769 128.956 C 269.508 127.702,270.255 126.228,270.429 125.680 C 270.603 125.132,271.679 122.962,272.820 120.858 C 273.961 118.755,275.140 116.460,275.440 115.759 C 275.740 115.058,276.228 114.484,276.525 114.484 C 277.024 114.484,277.802 112.853,277.686 112.051 C 277.659 111.860,277.820 111.703,278.046 111.703 C 278.271 111.703,278.578 111.338,278.727 110.892 C 278.877 110.446,279.199 109.768,279.443 109.386 C 279.848 108.752,280.447 107.172,280.498 106.605 C 280.509 106.477,281.209 105.609,282.052 104.676 C 282.895 103.743,283.838 102.491,284.148 101.895 C 284.458 101.299,285.384 99.977,286.206 98.957 C 287.028 97.937,287.837 96.686,288.005 96.176 C 288.832 93.654,292.936 90.399,296.189 89.684 C 296.912 89.526,297.751 89.096,298.055 88.730 C 298.359 88.364,298.872 88.065,299.196 88.065 C 299.964 88.065,300.448 86.791,299.826 86.407 C 299.562 86.243,299.471 85.610,299.624 85.000 C 299.926 83.798,298.769 81.576,297.842 81.576 C 297.056 81.576,293.841 78.060,291.908 75.087 C 288.869 70.414,289.650 60.587,293.363 56.779 C 294.108 56.014,295.457 54.606,296.359 53.650 C 297.261 52.694,298.333 51.912,298.741 51.912 C 299.149 51.912,300.235 51.338,301.155 50.637 C 302.662 49.489,303.152 49.374,306.107 49.476 C 312.332 49.692,313.080 49.808,313.710 50.652 C 314.049 51.106,315.248 51.912,316.375 52.441 C 317.502 52.971,318.424 53.576,318.424 53.786 C 318.424 53.995,318.893 54.309,319.467 54.482 C 322.395 55.368,327.292 62.145,327.154 65.122 C 327.131 65.632,327.324 67.300,327.584 68.830 C 328.080 71.743,327.773 74.826,326.754 77.173 C 326.421 77.937,326.123 78.667,326.091 78.795 C 325.734 80.207,324.687 82.867,324.294 83.361 C 324.019 83.705,323.745 84.331,323.683 84.751 C 323.621 85.171,323.091 85.880,322.504 86.326 C 321.917 86.772,321.153 87.376,320.805 87.668 C 319.868 88.456,320.445 91.634,321.791 93.099 C 322.409 93.772,323.274 95.574,323.713 97.103 C 326.149 105.593,325.455 104.631,337.356 116.000 C 338.208 116.815,339.229 118.111,339.624 118.880 C 340.018 119.649,341.563 121.698,343.056 123.433 C 344.549 125.168,345.771 126.746,345.771 126.938 C 345.771 127.130,346.144 127.692,346.601 128.186 C 349.475 131.296,350.650 134.009,351.556 139.623 C 352.466 145.263,346.837 143.760,343.657 137.514 C 342.683 135.600,338.981 131.683,332.626 125.840 C 330.407 123.801,328.129 121.366,327.564 120.431 C 326.998 119.495,325.545 117.246,324.334 115.434 C 323.123 113.621,322.122 111.988,322.111 111.805 C 322.099 111.622,321.553 111.054,320.897 110.545 C 320.241 110.035,319.348 109.289,318.913 108.887 C 318.078 108.116,314.710 106.429,313.024 105.936 C 311.701 105.549,311.225 108.681,311.902 113.326 C 314.762 132.960,315.358 134.189,322.432 135.040 C 323.414 135.158,324.767 135.469,325.439 135.730 C 326.323 136.074,327.561 136.019,329.922 135.530 C 331.717 135.158,333.449 134.912,333.772 134.982 C 334.095 135.053,334.430 134.793,334.517 134.406 C 334.780 133.221,333.582 132.077,332.097 132.095 C 331.332 132.104,329.768 132.127,328.621 132.145 C 323.112 132.233,318.460 130.160,318.434 127.606 C 318.429 127.047,318.222 126.465,317.975 126.313 C 317.729 126.160,317.553 125.323,317.586 124.453 C 317.619 123.582,317.431 122.599,317.170 122.269 C 316.908 121.939,316.550 120.521,316.374 119.119 C 316.198 117.717,315.753 115.676,315.385 114.584 C 313.611 109.317,317.109 111.864,322.474 119.746 C 323.663 121.492,325.088 123.093,325.641 123.303 C 326.194 123.514,327.858 125.057,329.338 126.733 C 330.819 128.409,332.268 129.780,332.559 129.780 C 332.850 129.780,334.013 130.839,335.142 132.134 C 336.272 133.428,337.437 134.750,337.732 135.071 C 338.028 135.391,338.994 136.786,339.879 138.171 C 342.074 141.601,346.119 145.539,347.450 145.539 C 348.032 145.539,349.009 145.767,349.621 146.046 C 353.298 147.721,356.533 142.155,354.334 137.938 C 353.456 136.254,353.687 136.037,356.361 136.037 C 358.389 136.037,358.526 135.958,358.668 134.711 C 358.861 133.028,363.223 133.049,366.484 134.749 C 367.538 135.299,369.201 135.879,370.180 136.039 C 372.223 136.374,375.435 137.646,375.435 138.121 C 375.435 140.101,368.086 142.920,362.457 143.099 C 356.432 143.291,356.411 143.298,356.561 145.175 C 356.675 146.608,359.212 147.939,359.212 146.566 C 359.212 146.332,361.110 146.006,363.429 145.842 C 376.803 144.893,384.290 134.883,372.454 133.778 C 370.290 133.576,367.887 132.504,366.261 131.017 C 365.373 130.204,365.050 130.137,364.297 130.608 C 363.802 130.917,362.069 131.170,360.446 131.170 C 358.824 131.170,356.836 131.401,356.029 131.682 C 354.278 132.292,352.260 131.889,352.260 130.930 C 352.260 130.552,352.103 130.241,351.912 130.238 C 351.721 130.235,351.147 129.360,350.637 128.293 C 350.127 127.227,348.302 124.953,346.582 123.242 C 344.861 121.530,343.453 119.830,343.453 119.464 C 343.453 119.099,343.014 118.402,342.477 117.917 C 341.940 117.431,341.126 116.304,340.669 115.411 C 340.212 114.519,337.513 111.626,334.672 108.982 C 331.831 106.338,329.620 104.061,329.760 103.921 C 329.899 103.782,329.740 103.338,329.405 102.934 C 329.070 102.531,328.200 100.324,327.472 98.030 C 326.744 95.736,325.797 93.441,325.368 92.932 C 323.927 91.220,323.925 90.869,325.352 88.796 C 326.130 87.665,326.767 86.516,326.767 86.243 C 326.767 85.971,327.010 85.747,327.308 85.747 C 327.605 85.747,327.730 85.629,327.586 85.484 C 327.441 85.340,327.719 84.094,328.204 82.715 C 328.688 81.336,329.085 79.828,329.085 79.363 C 329.085 78.897,329.302 78.299,329.569 78.033 C 330.071 77.530,331.099 69.232,330.732 68.639 C 330.618 68.454,330.382 66.550,330.209 64.408 C 329.973 61.488,329.620 60.079,328.794 58.772 C 328.189 57.813,327.694 56.910,327.694 56.766 C 327.694 56.504,326.885 55.726,323.218 52.466 C 318.430 48.211,315.716 46.926,309.386 45.917 C 307.856 45.674,306.083 45.366,305.446 45.232 C 304.809 45.099,303.453 45.259,302.433 45.588 M295.829 55.722 C 293.806 56.698,295.570 61.597,297.693 60.898 C 298.261 60.711,299.438 60.437,300.309 60.289 C 302.027 59.997,303.115 57.474,301.522 57.474 C 301.131 57.474,300.811 57.168,300.811 56.795 C 300.811 55.347,297.905 54.721,295.829 55.722 M320.278 68.565 C 320.278 68.802,319.941 69.332,319.529 69.744 C 318.037 71.236,318.183 73.484,319.815 74.160 C 322.692 75.352,324.772 72.221,323.127 69.177 C 322.571 68.149,320.278 67.656,320.278 68.565 M112.846 123.736 C 108.640 125.422,110.219 129.109,115.000 128.767 L 117.034 128.621 116.977 126.843 C 116.896 124.291,115.007 122.870,112.846 123.736 M305.081 126.651 C 304.749 127.053,304.784 127.757,305.196 128.952 C 305.522 129.899,305.677 130.785,305.540 130.922 C 305.200 131.262,307.051 131.237,307.957 130.889 C 309.056 130.467,308.858 128.245,307.618 127.080 C 306.394 125.930,305.765 125.824,305.081 126.651 M251.217 131.170 C 250.579 131.374,249.219 131.562,248.194 131.588 C 246.395 131.632,244.264 132.170,236.848 134.451 C 229.411 136.737,225.758 140.171,226.426 144.245 C 226.898 147.124,227.731 147.855,230.547 147.863 C 231.846 147.867,233.844 148.195,234.987 148.593 C 237.747 149.554,239.931 149.805,240.913 149.272 C 242.471 148.428,250.623 147.667,258.864 147.598 C 268.125 147.521,269.465 147.396,278.823 145.748 C 282.407 145.117,287.726 144.296,290.642 143.923 C 293.558 143.550,297.300 142.932,298.957 142.548 C 300.624 142.162,304.196 141.846,306.952 141.840 C 312.182 141.830,312.969 141.462,310.496 140.184 C 309.436 139.635,308.457 139.522,306.775 139.754 C 305.313 139.955,304.265 139.879,303.861 139.544 C 303.043 138.865,291.466 139.089,290.562 139.801 C 290.208 140.079,288.563 140.557,286.906 140.862 C 285.249 141.167,282.937 141.723,281.768 142.099 C 277.073 143.607,271.448 144.139,260.718 144.091 C 254.971 144.065,251.585 144.284,248.204 144.899 C 242.446 145.948,238.146 145.932,235.689 144.853 C 234.670 144.405,232.949 144.073,231.866 144.115 C 229.930 144.190,229.896 144.165,229.896 142.657 C 229.896 140.404,234.481 137.659,238.244 137.659 C 238.904 137.659,239.642 137.482,239.884 137.266 C 240.625 136.603,244.401 135.261,246.118 135.050 C 247.010 134.941,248.888 134.670,250.290 134.449 C 251.849 134.203,253.829 134.227,255.388 134.512 C 260.179 135.385,261.526 134.848,260.088 132.635 C 259.766 132.139,253.532 130.571,252.607 130.754 C 252.480 130.779,251.854 130.966,251.217 131.170 M316.864 143.162 C 317.662 143.661,318.629 144.515,319.011 145.061 C 319.671 146.004,320.001 146.044,325.663 145.880 C 330.048 145.753,331.929 145.872,332.786 146.331 C 333.433 146.678,335.085 146.917,336.501 146.870 C 337.903 146.823,339.555 146.947,340.173 147.146 C 341.008 147.414,341.453 147.293,341.904 146.677 C 342.859 145.370,341.847 144.615,339.109 144.591 C 337.802 144.580,335.689 144.294,334.415 143.955 C 332.806 143.528,330.367 143.413,326.444 143.579 C 322.976 143.725,320.288 143.627,319.491 143.325 C 318.777 143.055,317.567 142.703,316.802 142.544 L 315.411 142.255 316.864 143.162 " stroke="none" fill="#000000" fill-rule="evenodd"></path></g></svg>